<?xml version="1.0" encoding="utf-8"?>
<!-- Generator: Adobe Illustrator 27.9.0, SVG Export Plug-In . SVG Version: 6.00 Build 0)  -->
<svg version="1.1" xmlns="http://www.w3.org/2000/svg" xmlns:xlink="http://www.w3.org/1999/xlink" x="0px" y="0px"
	 viewBox="0 0 1440 900" style="enable-background:new 0 0 1440 900;" xml:space="preserve">
<style type="text/css">
	.st0{fill:#637D88;}
	.st1{fill:#94B6C0;}
	.st2{fill:#FFFFFF;}
</style>
<g id="Слой_1">
</g>
<g id="Слой_2">
	<circle class="st0" cx="459.5" cy="449.5" r="442.5"/>
	<path d="M459.5,30.71c-231.29,0-418.79,187.5-418.79,418.79c0,231.29,187.5,418.79,418.79,418.79s418.79-187.5,418.79-418.79
		C878.29,218.21,690.79,30.71,459.5,30.71z M725.66,484.2l1.57,0.18c-0.11,0.28-0.23,0.58-0.34,0.87L725.66,484.2z M773.49,408.42
		l9.18,4.06c-0.4,0.95-0.83,1.96-1.26,2.95L773.49,408.42z M853.76,398.86h3.08c0.07,0.59,0.14,1.18,0.22,1.77L853.76,398.86z
		 M61.11,408.34c0.02-0.17,0.04-0.35,0.06-0.52h0.73L61.11,408.34z M109.22,421.25c-0.28-0.8-0.56-1.63-0.82-2.39l6.01-3.29
		L109.22,421.25z M133.94,425.01l-0.5-1.1l0.8,0.87L133.94,425.01z M144.89,477.82c-0.07-0.23-0.15-0.47-0.22-0.7l1.03-0.14
		L144.89,477.82z M175.67,506.45c-3.46-7.76-5.93-13.41-5.93-13.41l6.23,5.6l-7.12-11.95l3.12,2.8l-4-9.15l3.12,2.8l-7.12-11.95
		l3.12,2.8l-4-9.15l3.12,2.8l-4-9.15l3.12,2.8l-8.45-21.48l-10.25,24.1l4.9-3.92l-6.68,10.65l4.9-3.92l-5.54,8.82
		c-0.43-1.37-0.86-2.75-1.26-4.04c-3.32-10.63-5.66-18.36-5.66-18.36l7.61,8.35l-7.61-16.7l3.81,4.17l-3.46-11.37
		c0.15-0.1,0.29-0.19,0.44-0.29l3.02,3.31l-1.86-4.08c1.41-0.94,2.83-1.88,4.24-2.83c0,5.27,0,10.54,0,15.8
		c10.54-10.54,21.07-21.07,31.61-31.61c5.27,0,10.54,0,15.8,0c0,5.27,0,10.54,0,15.8c0,5.27,0,10.54,0,15.8
		c28.37-16.92,41.58-26.28,47.41-31.61c0,0,0.03-0.03,0.04-0.04c0.34-0.32,1.88-1.88,47.37-47.37c0,0,30.63-30.63,31.61-31.61
		c10.54-10.54,21.07-21.07,31.61-31.61l-19.4,68.85l-12.2,10.17l12.2,11.31l-12.2,36.1h-29.1l-49.91,31.61l12.36-31.61l-59.77,47.41
		l36.3-7.58l-49.45,37.46C176.99,509.42,176.31,507.9,175.67,506.45z M570.12,496.91v15.8H206.64
		c31.61-10.54,63.21-21.07,94.82-31.61c15.8-10.54,31.61-21.07,47.41-31.61c0,5.27,0,10.54,0,15.8l63.21-47.41h-19.71
		c6.19-4.4,12.86-9.62,19.71-15.8c6-5.41,11.25-10.76,15.8-15.8c10.54-2.76,21.07-5.53,31.61-8.29l-31.61,55.7h15.8v31.61
		l-15.8,31.61l31.61-31.61l31.61-79.02v-15.8l15.8-15.8l15.8-15.8c5.27,5.27,10.54,10.54,15.8,15.8c0,10.54,0,21.07,0,31.61v15.8
		l15.8-15.8v63.21l-15.8,31.61l15.8-15.8h15.8l-15.8,15.8L570.12,496.91z M538.52,323.07h-31.61c-4.92,7.72-14.75,20.88-31.61,31.61
		c-19.37,12.33-38.03,15.07-47.41,15.8c0-5.27,0-10.54,0-15.8c-9.78-8.22-20.72-18.64-31.61-31.61
		c-14.32-17.05-24.47-33.62-31.61-47.41c-5.27,0-10.54,0-15.8,0l-15.8,31.61l-15.8,15.8l-14.08-7.9
		c-11.57,21.03-27.46,45.72-49.13,71.12c-16.31,19.11-32.6,34.77-47.41,47.41c0-5.74,0-11.47,0-17.21l-15.8-14.4h-15.8l-23,31.61
		l-8.61-15.8l-7.56,5.67l-2.43-8l3.81,4.17l-3.81-12.52l3.81,4.17l-7.61-29.22l-19.03,29.22l7.61-4.17l-10.03,11
		c-2.7-7.9-4.6-13.6-4.6-13.6l6.41,6.41l-6.41-12.83l3.21,3.21l-3.21-9.62l3.21,3.21l-6.41-12.83l3.21,3.21l-3.21-9.62l3.21,3.21
		l-3.21-9.62l3.21,3.21l-6.41-22.45l-16.03,22.45l6.41-3.21l-9.62,9.62l6.41-3.21l-9.62,9.62h3.21l-9.62,6.41h6.41l-9.62,6.41
		l6.41,0l-9.62,6.41h6.41l-7.05,2.35c3.8-35.12,12.19-68.85,24.42-100.69l80.59-14.8l135.21-15.8H98.89
		c10.75-22.25,23.25-43.49,37.76-63.21h133.2l31.61-15.8l126.43-15.8H301.46l-31.61-15.8l-86.76-5.3
		c71.89-68.6,169.19-110.8,276.4-110.8c130.55,0,246.48,62.49,319.61,159.15h-82.56l-15.8,4.37h-79.02l94.82,15.8h-31.61
		l138.17,15.35c27.82,46.32,46.51,98.73,53.66,154.75l-12.82-3.45h9.8l-14.7-7.91l9.8,0l-14.7-7.91h9.8l-14.7-7.91h4.9l-14.7-11.87
		l9.8,3.96l-14.7-11.87l9.8,3.96l-24.51-27.69l-9.8,27.69l4.9-3.96l-4.9,11.87l4.9-3.96l-4.9,11.87l4.9-3.96l-9.8,15.82l4.9-3.96
		l-4.9,11.87l4.9-3.96l-9.8,15.82l9.8-7.91c0,0-2.91,7.03-7.03,16.78l-15.33-13.57l11.64,5.15l-29.09-36.05l-11.64,36.05l5.82-5.15
		l-5.82,15.45l5.82-5.15l-2.91,7.73c-21.94-15.53-36.28-33.06-44.94-45.67c-5.27,0-10.54,0-15.8,0l-15.8,31.61l-15.8-31.61h-47.41
		L538.52,323.07z M664.95,449.5l-47.41,15.8l63.21-47.41l15.8-31.61l7.51,11.31l1.41,12.72h7.51l15.18,23.38l6.05,12.09l-1.44,3.83
		l2.33-2.06l0.82,1.64l-8.97,15.87l11.64-10.3c0,0-3.59,9.53-8.66,22.65c-0.61,1.59-1.28,3.29-1.93,4.98l-8.46-10.89l7.49,4.84
		l-10.22-13.14l7.49,4.84l-15.67-29.73l-12.92,26.5l4.76-3.46l-6.12,11.29l4.76-3.46l-6.12,11.29l4.76-3.46l-10.88,14.75l4.76-3.46
		l-6.12,11.29l4.76-3.46l-10.88,14.75l9.53-6.91c0,0-1.85,3.42-4.75,8.7h-66.63l63.21-47.41V433.7L664.95,449.5z"/>
	<path class="st1" d="M722.43,571.35c-0.15,4.15-111.36,0.43-240.49,3.21c-137.26,2.95-255.96,12.42-256.52,6.41
		c-0.37-4,51.87-12.11,51.3-16.03c-0.48-3.32-38.13-0.15-38.48-3.21c-0.34-2.97,35.19-6.81,35.27-12.83
		c0.11-7.9-61.11-12.54-60.92-16.03c0.15-2.83,40.68-5.08,246.9,0c138.1,3.4,143.86,5.01,185.98,3.21c0,0,63.94-2.73,64.13,0
		c0.13,1.88-35.15,4.35-35.27,9.62c-0.12,5.54,38.78,9.72,38.48,12.83c-0.31,3.19-41.51,1.05-41.68,3.21
		C670.94,564.15,722.54,568.52,722.43,571.35z"/>
	<g id="Слой_3">
		<path class="st1" d="M500.99,780.76c-1.44-9.66-9.92-13.75-16.51-30.27c-4.71-11.81-5.56-22.71-5.5-30.27
			c-3.21,0.62-15.13,3.32-22.01,13.76c-4.83,7.32-5.46,15.84-5.5,16.51c-0.39,6.14,1.11,10.63,0,11.01c-1.15,0.39-4-4.03-5.5-8.26
			c-1.76-4.93-1.63-9.43-1.27-12.35c-3.58,3.88-10.86,12.9-12.49,26.11c-3.39,27.4,20.84,45.91,22.01,46.78
			c0.67,0.51,1.35,1.03,2.02,1.54c-2.71-5.04-4.28-11.13-3.4-16.67c1.66-10.38,11.08-13.47,13.76-27.52c1.07-5.6,0.59-10.47,0-13.76
			c4.69,5.13,19.24,22.37,16.51,44.03c-0.56,4.41-1.94,9.82-3.97,14.47C498.48,800.07,502.17,788.71,500.99,780.76z"/>
		<path class="st1" d="M508,839.48l-83.48-16.67c-0.41-0.08-0.68-0.48-0.6-0.89l1.62-8.13c0.08-0.41,0.48-0.68,0.89-0.6l83.48,16.67
			c0.37,0.07,0.61,0.44,0.54,0.81l-1.65,8.27C508.73,839.31,508.37,839.55,508,839.48z"/>
		<path class="st1" d="M509.54,823.73l-83.95,14.14c-0.41,0.07-0.81-0.21-0.88-0.62l-1.5-8.93c-0.07-0.41,0.21-0.81,0.62-0.88
			l83.95-14.14c0.37-0.06,0.73,0.19,0.79,0.56l1.53,9.08C510.17,823.31,509.92,823.67,509.54,823.73z"/>
		<g>
			<g>
				<path class="st2" d="M98.16,681.5c-0.21-0.17-0.32-0.26-0.53-0.43c-0.06-1.17-0.08-1.76-0.14-2.93
					c0.19-0.19,0.29-0.28,0.49-0.47c2.74-0.17,4.5-0.39,5.28-0.67c0.78-0.28,1.46-0.8,2.05-1.56c0.59-0.76,1.73-3.21,3.42-7.35
					c2.14-5.24,3.21-7.86,5.35-13.11c4.61-11.8,9.24-23.58,13.89-35.36c2.62-6.92,5.24-13.84,7.84-20.75
					c1.48-0.06,2.22-0.09,3.7-0.15c8.87,18.51,17.7,37.03,26.48,55.58c1.4,2.97,2.11,4.45,3.51,7.42c1.02,2.1,2.19,4.39,3.51,6.86
					c1.32,2.47,2.22,3.92,2.71,4.35c0.49,0.43,1.08,0.76,1.79,0.98c0.7,0.22,2.26,0.3,4.67,0.25c0.19,0.17,0.28,0.26,0.47,0.43
					c0.04,1.17,0.06,1.76,0.11,2.93c-0.17,0.19-0.26,0.28-0.43,0.47c-4-0.19-7.64-0.28-10.78-0.11c-6.14,0.32-12.46,0.83-18.69,1.23
					c-0.19-0.17-0.28-0.26-0.47-0.43c-0.05-1.17-0.07-1.76-0.12-2.93c0.17-0.19,0.26-0.28,0.43-0.47c4.21-0.24,6.83-0.52,7.87-0.85
					c1.04-0.32,1.54-0.99,1.5-2.01c-0.03-0.83-0.34-1.9-0.92-3.24c-3.04-6.76-4.57-10.14-7.62-16.9
					c-10.92,0.44-21.83,0.9-32.74,1.37c-2.21,5.87-3.32,8.81-5.52,14.69c-0.98,2.64-1.44,4.56-1.38,5.76
					c0.04,0.94,0.58,1.61,1.62,2.02c1.04,0.4,3.6,0.53,7.7,0.39c0.21,0.17,0.32,0.26,0.53,0.43c0.05,1.17,0.08,1.76,0.13,2.93
					c-0.17,0.19-0.26,0.28-0.43,0.47c-4.86-0.09-9.11-0.05-12.76,0.12C106.51,680.66,102.35,681,98.16,681.5z M122.47,648.74
					c9.54-0.42,19.09-0.82,28.63-1.2c-5.19-11.13-10.4-22.26-15.63-33.38C131.12,625.68,126.79,637.21,122.47,648.74z"/>
				<path class="st2" d="M184.31,598.17c0.18-0.16,0.26-0.25,0.44-0.41c6.58,0.07,11.06,0.07,13.46-0.02
					c10.65-0.59,15.98-0.87,26.64-1.42c7.59-0.23,13.84,0.29,18.74,1.57c4.9,1.27,9.28,3.6,13.15,6.97
					c3.87,3.37,6.83,7.34,8.9,11.89c2.07,4.55,3.16,9.44,3.29,14.66c0.13,5.07-0.64,10.11-2.29,15.11c-1.65,5-4.05,9.51-7.21,13.52
					c-3.16,4.01-6.78,7.27-10.87,9.79c-4.09,2.52-8.21,4.24-12.36,5.17c-4.15,0.93-8.4,1.46-12.76,1.6
					c-2.93,0.09-8.46,0.15-16.58,0.19c-2.67,0.01-4.44,0.04-5.3,0.06c-2.59,0.09-5.73,0.34-9.4,0.77c-0.19-0.17-0.28-0.26-0.47-0.44
					c-0.03-0.74-0.04-1.12-0.07-1.86c0.17-0.23,0.26-0.35,0.43-0.58c2.18-1.2,3.42-1.95,3.73-2.24c0.31-0.29,0.46-3.59,0.45-9.89
					c-0.01-6.3-0.07-11.1-0.18-14.4c-0.28-8.27-0.43-12.4-0.71-20.67c-0.2-5.11-0.3-7.67-0.5-12.79c-0.1-2.78-0.21-5.04-0.35-6.78
					c-0.14-1.74-0.31-2.99-0.53-3.73c-0.22-0.74-0.45-1.26-0.71-1.55c-0.26-0.29-0.67-0.53-1.22-0.72c-0.56-0.19-1.5-0.33-2.84-0.44
					c-1.74-0.07-2.6-0.11-4.34-0.19c-0.19-0.15-0.28-0.23-0.47-0.38C184.37,599.86,184.35,599.3,184.31,598.17z M207.8,670.97
					c3.86,0.63,8.29,0.86,13.29,0.7c8.76-0.27,15.72-1.94,20.89-5.02c5.17-3.08,8.97-7.52,11.42-13.34
					c2.45-5.82,3.58-12.33,3.39-19.54c-0.28-10.63-3.41-18.8-9.24-24.5c-7.34-7.18-18.22-7.88-27.34-8
					c-4.87-0.06-13.63,0.39-14.65,1.6c-1.47,1.75-0.02,13.12,0.23,20.86c0.23,7.08,0.35,10.61,0.58,17.69
					c0.26,6.62,0.4,9.94,0.66,16.56C207.14,661.19,207.4,665.53,207.8,670.97z"/>
				<path class="st2" d="M313.61,674.92c-0.6-1.64-3.06-7.91-7.43-18.8c-6.74-15.67-13.5-31.33-20.29-46.98
					c-2.32-5.36-3.78-8.4-4.36-9.12c-0.59-0.72-2.88-1.16-6.87-1.33c-0.21-0.2-0.32-0.3-0.53-0.49c-0.02-1.04-0.04-1.56-0.06-2.59
					c0.2-0.21,0.3-0.31,0.5-0.52c5.82,0.16,10.76,0.2,14.82,0.11c3.8-0.08,8.83-0.34,15.09-0.77c0.19,0.18,0.28,0.27,0.47,0.44
					c0.02,1.24,0.04,1.86,0.06,3.1c-0.18,0.18-0.27,0.28-0.45,0.46c-4.59,0.09-7.33,0.29-8.22,0.59c-0.89,0.3-1.32,0.85-1.3,1.63
					c0.01,0.45,0.66,2.44,1.95,5.96c1.29,3.52,2.43,6.5,3.43,8.92c6.23,14.73,12.44,29.47,18.61,44.23
					c4.69-12.42,9.4-24.83,14.13-37.23c0.98-2.53,2.41-6.62,4.29-12.25c1.88-5.63,2.82-9.01,2.8-10.14
					c-0.01-0.94-0.49-1.53-1.42-1.78c-0.93-0.25-3.72-0.52-8.36-0.82c-0.21-0.18-0.31-0.26-0.52-0.44
					c-0.02-1.08-0.03-1.62-0.05-2.71c0.2-0.18,0.3-0.28,0.51-0.46c6.65,0.19,10.89,0.27,12.71,0.25c1.48-0.02,5.31-0.23,11.5-0.62
					c0.18,0.18,0.28,0.27,0.46,0.44c0.01,1.08,0.02,1.62,0.04,2.71c-0.18,0.18-0.27,0.27-0.45,0.46c-2.73,0.15-4.38,0.38-4.94,0.69
					c-0.56,0.31-1.06,0.9-1.48,1.77c-0.42,0.87-1.74,3.86-3.94,8.97c-5.69,14.51-11.35,29.04-16.99,43.57
					c-3.79,9.72-6.45,17.27-8.01,22.64C317.03,674.85,315.89,674.87,313.61,674.92z"/>
				<path class="st2" d="M361.29,593.87c0.18-0.16,0.27-0.24,0.45-0.4c13.03,0.06,21.37,0.1,25.01,0.06
					c11.08-0.12,22.18-0.27,33.27-0.59c0.12,0.16,0.17,0.24,0.29,0.39c-0.93,3.61-1.6,9.27-2.01,16.98
					c-0.14,0.18-0.2,0.27-0.34,0.45c-1.11,0.01-1.67,0.01-2.79,0.02c-0.21-0.18-0.31-0.27-0.51-0.45c0.04-0.34,0.05-0.64,0.05-0.9
					c-0.02-3.19,0.13-7.95-0.8-9.13c-0.85-1.08-5.71-1.7-9.95-1.99c-4.24-0.29-7.42-0.42-9.54-0.4c-3,0.03-6.83,0.27-11.5,0.73
					c-0.05,3.61-0.08,5.41-0.14,9.02c-0.03,4.13-0.04,6.19-0.06,10.32c-0.02,4.58-0.03,6.87-0.05,11.44
					c4.09,0.18,7.85,0.26,11.29,0.23c3.48-0.03,6.39-0.17,8.73-0.41s3.71-0.49,4.11-0.74c0.39-0.25,0.69-0.72,0.9-1.42
					c0.2-0.7,0.37-1.93,0.51-3.7c0.08-1.4,0.12-2.1,0.2-3.5c0.18-0.18,0.27-0.27,0.45-0.45c1.04-0.01,1.57-0.01,2.61-0.02
					c0.18,0.18,0.27,0.27,0.46,0.45c-0.05,4.1-0.12,8.21-0.2,12.35c0.15,5.07,0.22,7.61,0.37,12.68c-0.18,0.18-0.27,0.27-0.45,0.45
					c-1.04,0.01-1.56,0.01-2.6,0.02c-0.18-0.18-0.27-0.27-0.46-0.45c-0.17-1.35-0.25-2.03-0.42-3.38c-0.36-2.63-0.62-4.2-0.77-4.7
					c-0.15-0.51-0.51-0.95-1.06-1.32c-0.55-0.37-1.96-0.66-4.23-0.87c-2.27-0.21-5.39-0.3-9.35-0.26
					c-2.19,0.02-9.13-0.52-10.03,0.38c-0.74,0.74-0.2,8.42-0.12,15.78c0.08,7.89,0.24,13.69,0.46,17.41
					c4.15-0.04,6.23-0.06,10.38-0.1c9.14-0.08,14.86-0.23,17.15-0.47c2.29-0.24,4.47-0.8,6.54-1.68c0.33-0.87,0.88-2.87,1.63-6.01
					c0.75-3.14,1.19-5.11,1.29-5.9c0.23-0.16,0.34-0.24,0.56-0.4c1.09-0.01,1.63-0.01,2.71-0.01c0.18,0.16,0.27,0.24,0.45,0.39
					c-0.33,1.62-0.65,4.44-0.95,8.46c-0.3,4.02-0.44,7.46-0.43,10.32c-0.16,0.18-0.24,0.27-0.39,0.45
					c-9.39-0.24-18.81-0.25-28.2-0.14c-6.14,0.01-9.2,0.02-15.34,0.04c-3.57,0.04-7.29,0.23-11.16,0.58
					c-0.18-0.18-0.27-0.27-0.46-0.45c-0.01-0.74-0.01-1.12-0.02-1.86c0.18-0.23,0.27-0.34,0.44-0.57c2.2-1.15,3.47-1.87,3.78-2.16
					c0.32-0.29,0.54-3.58,0.67-9.87c0.13-6.29,0.18-11.1,0.14-14.4c-0.1-8.27-0.15-12.41-0.24-20.68
					c-0.08-5.12-0.12-7.68-0.21-12.79c-0.03-2.78-0.1-5.04-0.19-6.79c-0.1-1.75-0.24-2.99-0.44-3.74c-0.2-0.75-0.42-1.27-0.67-1.57
					c-0.25-0.3-0.65-0.55-1.2-0.75c-0.55-0.2-1.5-0.37-2.83-0.5c-1.73-0.11-2.6-0.17-4.33-0.28c-0.18-0.16-0.28-0.23-0.46-0.39
					C361.31,595.56,361.3,595,361.29,593.87z"/>
				<path class="st2" d="M432.47,672.92c-0.2-0.2-0.31-0.3-0.51-0.5c0-1.04-0.01-1.56-0.01-2.59c0.2-0.18,0.3-0.27,0.51-0.45
					c2.29-0.05,4.13-0.18,5.5-0.41c1.37-0.23,2.25-0.61,2.65-1.14c0.39-0.53,0.65-1.37,0.78-2.54c0.13-1.16,0.25-3.8,0.37-7.89
					s0.18-7.03,0.17-8.79c-0.04-15.18-0.08-30.36-0.12-45.54c-0.01-1.92-0.36-3.33-1.06-4.25c-0.7-0.92-1.67-1.5-2.88-1.74
					c-1.22-0.24-3.29-0.37-6.21-0.4c-0.18-0.18-0.27-0.27-0.46-0.45c0-1.06-0.01-1.59-0.01-2.65c0.18-0.2,0.27-0.31,0.45-0.51
					c5.24,0.17,8.68,0.25,10.31,0.25c3.84-0.01,6.99-0.11,9.46-0.3c6.07,7.76,12.12,15.54,18.16,23.33
					c8.86,11.05,17.69,22.12,26.5,33.21c3.19,4.04,6.43,7.86,9.72,11.49c0.08-14.54,0.16-29.08,0.24-43.63
					c0.01-1.35-0.04-4.24-0.15-8.65c-0.11-4.42-0.25-7.22-0.44-8.4c-0.18-1.18-0.51-1.99-0.98-2.4c-0.47-0.42-1.36-0.73-2.67-0.94
					c-1.31-0.21-3.08-0.34-5.32-0.39c-0.18-0.18-0.27-0.27-0.45-0.45c0-1.04,0.01-1.56,0.01-2.59c0.18-0.2,0.27-0.3,0.46-0.51
					c3.08,0.2,7.46,0.32,13.16,0.35c5.2,0.03,8.98-0.04,11.34-0.21c0.2,0.2,0.31,0.31,0.51,0.51c-0.01,1.04-0.01,1.56-0.02,2.59
					c-0.18,0.18-0.28,0.27-0.46,0.45c-2.51,0.02-4.44,0.15-5.81,0.38c-1.37,0.23-2.23,0.63-2.57,1.19
					c-0.34,0.56-0.59,1.39-0.73,2.48c-0.14,1.09-0.29,3.68-0.45,7.78c-0.16,4.09-0.24,7.04-0.25,8.85
					c-0.07,10.71-0.1,16.06-0.17,26.77c-0.02,6.2-0.02,9.3-0.04,15.5c0.04,5.07,0.09,10.17,0.13,15.28
					c-1.88-0.65-5.12-1.46-9.74-2.42c-1.59-1.9-2.39-2.85-3.98-4.75c-4.78-5.88-7.18-8.82-11.98-14.7
					c-12.76-15.96-25.57-31.88-38.43-47.76c0.03,14.41,0.06,28.82,0.09,43.23c0,1.73,0.08,4.81,0.22,9.24
					c0.14,4.43,0.3,7.12,0.5,8.06c0.19,0.94,0.44,1.59,0.74,1.94c0.3,0.36,0.95,0.68,1.95,0.98c1,0.3,3.06,0.47,6.18,0.5
					c0.18,0.18,0.27,0.27,0.45,0.45c0,1.06,0,1.59,0,2.65c-0.18,0.18-0.27,0.27-0.45,0.45c-1.96-0.26-5.11-0.39-9.47-0.38
					C441.59,672.49,436.68,672.64,432.47,672.92z"/>
				<path class="st2" d="M594.14,593.92c0.2,0.21,0.3,0.31,0.5,0.52c-0.4,3.38-0.67,9.27-0.81,17.69c-0.18,0.18-0.28,0.27-0.46,0.44
					c-1.07-0.02-1.6-0.03-2.67-0.04c-0.18-0.21-0.27-0.31-0.45-0.52c-0.22-2.08-0.32-3.12-0.54-5.2c-0.26-2.78-0.47-4.49-0.63-5.11
					c-0.16-0.62-0.43-1.08-0.8-1.37c-0.38-0.29-1.6-0.54-3.69-0.76c-2.08-0.22-4.42-0.35-7-0.39c-4.3-0.06-6.46-0.09-10.76-0.15
					c-0.42,8.49-0.63,13.39-0.65,14.7c-0.14,10.95-0.29,21.9-0.43,32.86c-0.01,4.4-0.02,6.6-0.03,10.99c-0.02,4.25,0.05,7,0.2,8.26
					s0.4,2.09,0.76,2.49c0.35,0.4,1.03,0.75,2.05,1.04c1.01,0.3,3.53,0.55,7.55,0.76c0.16,0.14,0.23,0.21,0.39,0.34
					c-0.02,1.13-0.02,1.69-0.04,2.82c-0.16,0.18-0.24,0.27-0.4,0.45c-9.62-0.44-14.99-0.66-16.12-0.67
					c-1.2-0.02-6.56,0.06-16.08,0.27c-0.18-0.18-0.27-0.27-0.45-0.46c0.01-1.13,0.02-1.69,0.03-2.82c0.18-0.13,0.27-0.2,0.45-0.33
					c3.54-0.11,5.88-0.27,7.03-0.49c1.15-0.21,1.92-0.49,2.32-0.85c0.4-0.35,0.74-1.11,1.01-2.27c0.28-1.16,0.44-3.75,0.49-7.77
					c0.1-4.76,0.15-7.13,0.25-11.89c0.13-10.95,0.26-21.91,0.39-32.86c0.01-0.6-0.09-5.51-0.28-14.72c-3.39-0.04-5.09-0.06-8.48-0.1
					c-3.49-0.04-6.51,0.01-9.05,0.13c-2.54,0.13-4.02,0.5-4.42,1.12c-0.4,0.62-0.79,2.63-1.16,6.05c-0.25,2.07-0.37,3.11-0.61,5.18
					c-0.21,0.2-0.31,0.3-0.52,0.5c-1.05-0.01-1.57-0.01-2.61-0.02c-0.18-0.18-0.27-0.27-0.45-0.45c0-9.06-0.12-14.96-0.36-17.7
					c0.21-0.2,0.31-0.3,0.52-0.5c10.98,0.54,22,0.66,32.98,0.8C572.09,594.03,583.13,594.2,594.14,593.92z"/>
				<path class="st2" d="M598.58,594.39c0.18-0.15,0.28-0.23,0.46-0.39c9.41,0.47,14.84,0.72,16.28,0.75
					c1.29,0.03,6.74-0.02,16.36-0.12c0.18,0.16,0.27,0.24,0.45,0.4c-0.02,1.13-0.04,1.69-0.06,2.82c-0.19,0.15-0.28,0.23-0.46,0.38
					c-2.62,0.02-4.64,0.09-6.07,0.21s-2.47,0.38-3.12,0.78c-0.65,0.4-1.1,1.36-1.34,2.88c-0.24,1.52-0.39,3.63-0.44,6.33
					c-0.15,5.18-0.23,7.78-0.38,12.96c-0.14,7.17-0.22,10.75-0.36,17.92c-0.12,5.9-0.08,10.23,0.11,13s0.67,5.11,1.44,7.02
					c0.77,1.91,1.97,3.57,3.6,4.98c1.63,1.41,3.98,2.57,7.04,3.5c3.07,0.93,6.55,1.44,10.47,1.53c4.14,0.1,8.02-0.38,11.64-1.44
					c3.62-1.06,6.4-2.65,8.34-4.78c1.94-2.13,3.25-4.96,3.92-8.5c0.68-3.53,1.1-8.46,1.27-14.77c0.18-6.94,0.27-10.41,0.46-17.35
					c0.08-2.93,0.13-6.96,0.18-12.09c0.04-5.13-0.11-8.09-0.45-8.86c-0.34-0.78-0.99-1.38-1.95-1.8c-0.96-0.42-3.64-0.72-8.04-0.91
					c-0.18-0.18-0.27-0.28-0.44-0.46c0.03-1.06,0.04-1.59,0.07-2.65c0.19-0.2,0.28-0.3,0.47-0.5c5.61,0.44,10.11,0.71,13.49,0.8
					c2.89,0.08,7.37,0.05,13.45-0.08c0.2,0.19,0.3,0.28,0.5,0.47c-0.03,1.08-0.05,1.62-0.08,2.7c-0.21,0.17-0.32,0.26-0.53,0.44
					c-3.57-0.03-5.9,0.05-6.99,0.23c-1.09,0.18-1.86,0.47-2.3,0.87c-0.45,0.4-0.79,1.03-1.02,1.89c-0.23,0.86-0.44,3.33-0.63,7.43
					c-0.21,5.07-0.31,7.6-0.51,12.67c-0.18,6.85-0.28,10.28-0.46,17.13c-0.18,6.84-0.59,12.22-1.23,16.15
					c-0.63,3.93-1.9,7.14-3.79,9.63s-4.11,4.55-6.65,6.2c-2.55,1.65-5.78,2.88-9.71,3.7c-3.93,0.83-8,1.19-12.21,1.09
					c-5.26-0.12-9.9-0.8-13.92-2.05c-4.02-1.25-7.17-2.85-9.47-4.82c-2.29-1.96-3.93-4.01-4.91-6.15c-0.98-2.14-1.59-4.65-1.84-7.53
					c-0.25-2.88-0.32-7.27-0.21-13.17c0.16-8.66,0.24-12.98,0.41-21.64c0.04-4.4,0.06-6.59,0.09-10.99
					c0.04-4.28-0.01-7.05-0.16-8.29c-0.15-1.24-0.4-2.07-0.75-2.49c-0.35-0.42-1.04-0.77-2.06-1.05c-1.02-0.28-3.54-0.54-7.56-0.76
					c-0.18-0.16-0.27-0.24-0.45-0.4C598.55,596.08,598.56,595.52,598.58,594.39z"/>
				<path class="st2" d="M690,596.51c0.19-0.15,0.28-0.23,0.47-0.38c6.94,0.5,12.35,0.82,16.22,0.94
					c4.29,0.13,10.11,0.16,17.38,0.17c2.69,0,4.65,0.04,5.87,0.09c9.6,0.33,16.06,2.29,19.34,5.87s4.84,7.74,4.66,12.47
					c-0.12,3.15-1.07,6.22-2.84,9.2c-1.78,2.98-4.33,5.49-7.66,7.53c-3.33,2.04-7.86,3.51-13.6,4.4c1.01,1.5,2.83,4.1,5.46,7.8
					c3.07,4.35,4.6,6.52,7.66,10.87c2.47,3.59,5.13,7.38,7.96,11.37c2.83,4,4.66,6.27,5.51,6.81c0.85,0.54,1.58,0.88,2.19,1.01
					c0.62,0.14,1.6,0.23,2.95,0.28c0.17,0.19,0.26,0.28,0.43,0.47c-0.04,1.06-0.06,1.59-0.1,2.65c-0.21,0.19-0.32,0.29-0.53,0.49
					c-1.79-0.29-3.93-0.49-6.41-0.58c-2.67-0.1-5.58-0.1-8.75,0.01c-2.48-3.25-6.39-8.87-11.66-16.83
					c-5.84-8.83-12.26-17.59-19.07-25.74c0.25-0.69,0.37-1.04,0.62-1.73c1.96,0.18,3.49,0.28,4.59,0.32
					c6.54,0.22,11.71-1.16,15.52-4.15s5.82-7.24,6.02-12.76c0.18-4.96-1.36-8.76-4.61-11.42s-7.72-4.08-13.41-4.27
					c-3.98-0.13-7.76,0.29-11.32,1.27c-0.6,0.81-1.1,7.84-1.53,21.1c-0.33,10.43-0.5,15.65-0.83,26.08
					c-0.12,4.4-0.18,6.59-0.29,10.99c-0.1,4.25-0.07,6.99,0.08,8.24c0.15,1.25,0.4,2.08,0.74,2.5c0.34,0.42,1.02,0.79,2.03,1.11
					c1.01,0.31,3.5,0.61,7.48,0.89c0.18,0.14,0.26,0.21,0.44,0.35c-0.04,1.13-0.06,1.69-0.09,2.82c-0.19,0.17-0.28,0.26-0.47,0.44
					c-0.19-0.01-3.51-0.26-9.91-0.66c-2.66-0.17-4.75-0.26-6.25-0.31c-1.17-0.04-6.54-0.06-16.14-0.03
					c-0.18-0.19-0.26-0.28-0.44-0.46c0.03-1.13,0.05-1.69,0.08-2.82c0.18-0.13,0.28-0.19,0.46-0.32c3.5-0.05,5.84-0.17,7.01-0.36
					c1.17-0.19,1.96-0.46,2.37-0.8c0.41-0.34,0.75-1.09,1.03-2.25c0.28-1.16,0.5-3.74,0.66-7.76c0.17-4.75,0.25-7.13,0.42-11.89
					c0.32-10.43,0.48-15.65,0.79-26.08c0.09-4.4,0.13-6.59,0.22-10.99c0.09-4.28,0.07-7.05-0.06-8.29c-0.13-1.24-0.37-2.08-0.72-2.5
					c-0.35-0.42-1.03-0.78-2.05-1.08c-1.02-0.29-3.53-0.58-7.55-0.84c-0.18-0.16-0.27-0.24-0.44-0.41
					C689.95,598.2,689.97,597.64,690,596.51z"/>
				<path class="st2" d="M769.67,599.23c0.19-0.15,0.28-0.23,0.47-0.38c13.01,0.74,21.34,1.21,24.98,1.36
					c11.07,0.46,22.17,0.89,33.26,1.14c0.11,0.16,0.16,0.24,0.27,0.41c-1.12,3.56-2.08,9.18-2.89,16.85
					c-0.14,0.17-0.22,0.26-0.36,0.43c-1.11-0.05-1.67-0.08-2.78-0.13c-0.2-0.19-0.29-0.28-0.49-0.47c0.05-0.34,0.09-0.64,0.1-0.9
					c0.15-3.19,0.55-7.93-0.32-9.16c-0.79-1.12-5.62-2-9.83-2.51c-4.22-0.51-7.39-0.81-9.51-0.9c-3-0.13-6.84-0.09-11.52,0.13
					c-0.24,3.6-0.36,5.4-0.61,9c-0.24,4.12-0.36,6.18-0.6,10.3c-0.26,4.57-0.39,6.86-0.65,11.43c4.07,0.4,7.83,0.67,11.26,0.82
					c3.48,0.15,6.39,0.17,8.74,0.05s3.73-0.29,4.14-0.52c0.41-0.23,0.73-0.68,0.97-1.37c0.24-0.68,0.47-1.91,0.71-3.66
					c0.15-1.39,0.23-2.09,0.38-3.48c0.19-0.17,0.28-0.26,0.47-0.43c1.04,0.05,1.57,0.07,2.61,0.12c0.17,0.19,0.26,0.28,0.43,0.47
					c-0.26,4.09-0.54,8.19-0.85,12.32c-0.12,5.07-0.18,7.61-0.29,12.68c-0.19,0.17-0.28,0.26-0.47,0.43
					c-1.04-0.05-1.56-0.07-2.6-0.12c-0.17-0.19-0.26-0.28-0.43-0.47c-0.1-1.36-0.15-2.04-0.24-3.4c-0.22-2.64-0.4-4.22-0.52-4.73
					c-0.13-0.51-0.46-0.97-0.99-1.37c-0.53-0.4-1.92-0.76-4.18-1.09c-2.25-0.33-5.37-0.58-9.33-0.75c-2.19-0.09-9.1-0.99-10.04-0.14
					c-0.77,0.7-0.64,8.4-0.94,15.76c-0.33,7.88-0.48,13.69-0.45,17.41c4.15,0.17,6.23,0.26,10.38,0.44
					c9.14,0.39,14.85,0.54,17.16,0.42s4.51-0.56,6.62-1.33c0.38-0.85,1.03-2.82,1.94-5.92c0.92-3.1,1.45-5.04,1.6-5.82
					c0.23-0.15,0.35-0.22,0.58-0.37c1.08,0.05,1.63,0.08,2.71,0.13c0.17,0.17,0.26,0.25,0.43,0.42c-0.42,1.6-0.88,4.4-1.39,8.4
					c-0.51,4-0.83,7.43-0.96,10.28c-0.17,0.17-0.25,0.26-0.42,0.43c-9.37-0.73-18.77-1.23-28.16-1.61
					c-6.13-0.31-9.19-0.46-15.32-0.76c-3.57-0.15-7.3-0.15-11.18,0c-0.17-0.19-0.26-0.28-0.43-0.47c0.03-0.74,0.04-1.12,0.07-1.86
					c0.19-0.22,0.28-0.33,0.47-0.55c2.26-1.04,3.56-1.69,3.89-1.96c0.33-0.27,0.73-3.54,1.19-9.82c0.46-6.28,0.76-11.07,0.89-14.38
					c0.33-8.27,0.5-12.4,0.84-20.67c0.18-5.11,0.28-7.67,0.46-12.79c0.11-2.78,0.17-5.04,0.16-6.79c-0.01-1.75-0.09-3-0.25-3.76
					c-0.16-0.76-0.36-1.29-0.59-1.6c-0.23-0.31-0.62-0.58-1.16-0.81c-0.54-0.23-1.47-0.44-2.8-0.65c-1.72-0.2-2.59-0.31-4.31-0.51
					c-0.18-0.16-0.26-0.25-0.44-0.41C769.61,600.92,769.63,600.35,769.67,599.23z"/>
			</g>
		</g>
	</g>
</g>
</svg>
